<?xml version="1.0"?>
<svg width="640" height="480" xmlns="http://www.w3.org/2000/svg" xmlns:svg="http://www.w3.org/2000/svg">
 <!-- Created with SVG-edit - https://github.com/SVG-Edit/svgedit-->
 <defs>
  <radialGradient cx="0.5" cy="0.5" id="svg_32" r="0.5" spreadMethod="reflect">
   <stop offset="0" stop-color="#000000"/>
   <stop offset="1" stop-color="#ffffff"/>
  </radialGradient>
  <radialGradient cx="0.7487" cy="0.30859" id="svg_35" spreadMethod="repeat">
   <stop offset="0" stop-color="#000000"/>
   <stop offset="1" stop-color="#ffffff"/>
  </radialGradient>
  <radialGradient cx="0.21745" cy="0.64453" gradientTransform="rotate(46.13795629040948,0.2174479365348816,0.64453125) translate(0.16146128036052687,0) scale(0.25747154498922414,1)" id="svg_36" r="1.1128" spreadMethod="reflect">
   <stop offset="0" stop-color="#000000"/>
   <stop offset="1" stop-color="#ffffff"/>
  </radialGradient>
  <radialGradient cx="0.57682" cy="0.64453" id="svg_62" spreadMethod="reflect">
   <stop offset="0" stop-color="#7f0000"/>
   <stop offset="1" stop-color="#80ffff"/>
  </radialGradient>
  <radialGradient cx="0.29948" cy="0.30469" id="svg_74" spreadMethod="repeat">
   <stop offset="0" stop-color="#00ffff"/>
   <stop offset="1" stop-color="#ff0000"/>
  </radialGradient>
  <linearGradient id="svg_77" x2="0.90885" y2="0.86719">
   <stop offset="0" stop-color="#3f7f00"/>
   <stop offset="1" stop-color="#c080ff"/>
  </linearGradient>
  <linearGradient id="svg_80" spreadMethod="pad" x1="0.51823" x2="1" y1="0.48438" y2="0.00781">
   <stop offset="0" stop-color="#7f003f"/>
   <stop offset="1" stop-color="#80ffc0"/>
  </linearGradient>
 </defs>
 <g class="layer">
  <title>Layer 1</title>
  <rect fill="#000000" height="1" id="svg_4" stroke="#000000" stroke-dasharray="null" stroke-linecap="null" stroke-linejoin="null" stroke-width="2" width="0" x="113.5" y="315.5"/>
  <rect fill="url(#svg_77)" height="118" id="svg_14" stroke="#7a4b4b" stroke-dasharray="null" stroke-linecap="null" stroke-linejoin="null" stroke-width="2" width="27" x="171.5" y="182.5"/>
  <rect fill="url(#svg_35)" height="118" id="svg_15" opacity="0.75" stroke="#bf0b0b" stroke-dasharray="null" stroke-linecap="null" stroke-linejoin="null" stroke-width="4" width="27" x="242.5" y="182.5"/>
  <rect fill="#0000ff" height="118" id="svg_16" stroke="url(#svg_36)" stroke-dasharray="null" stroke-linecap="null" stroke-linejoin="null" stroke-width="2" width="27" x="302.5" y="181.5"/>
  <rect fill="#0000ff" height="118" id="svg_17" stroke="url(#svg_36)" stroke-dasharray="null" stroke-linecap="null" stroke-linejoin="null" stroke-width="2" width="27" x="400.5" y="181.5"/>
  <rect fill="url(#svg_80)" height="118" id="svg_18" stroke="url(#svg_36)" stroke-dasharray="null" stroke-linecap="null" stroke-linejoin="null" stroke-width="2" width="27" x="472.5" y="181.5"/>
  <rect fill="url(#svg_80)" height="118" id="svg_19" stroke="url(#svg_36)" stroke-dasharray="null" stroke-linecap="null" stroke-linejoin="null" stroke-width="2" width="27" x="573.5" y="181.5"/>
  <path d="m143.5,243.5l15.5,53.5l12,1l-34,-117l-11,1l17.5,61.5z" fill="url(#svg_77)" id="svg_24" stroke="#7a4b4b" stroke-dasharray="null" stroke-linecap="null" stroke-linejoin="null" stroke-width="2"/>
  <path d="m329.5,210.5c-1,0 34,27 33.5,26.5c-0.5,-0.5 37.5,-26.5 37,-27c-0.5,-0.5 1.5,-28.5 1,-29c-0.5,-0.5 -31.5,28.5 -32,28c-0.5,-0.5 -39.5,-27.5 -40,-28c-0.5,-0.5 0.5,29.5 0.5,29.5z" fill="#0000ff" id="svg_29" stroke="url(#svg_36)" stroke-dasharray="null" stroke-linecap="null" stroke-linejoin="null" stroke-width="2"/>
  <path d="m499.5,216.5l33.5,23.5l41,-26l-1,-33l-37,31c0,0 -36.5,-31.5 -37.5,-30.5c-1,1 1,35 1,35z" fill="url(#svg_80)" id="svg_30" stroke="url(#svg_36)" stroke-dasharray="null" stroke-linecap="null" stroke-linejoin="null" stroke-width="2"/>
  <polygon fill="#7f0000" id="svg_42" opacity="0.75"/>
  <polygon fill="#7f0000" id="svg_43" opacity="0.75"/>
  <polygon fill="#7f0000" id="svg_44" opacity="0.75"/>
  <polygon fill="#7f0000" id="svg_45" opacity="0.75"/>
  <polygon fill="#7f0000" id="svg_46" opacity="0.75"/>
  <polygon fill="#7f0000" id="svg_47" opacity="0.75"/>
  <polygon fill="url(#svg_62)" id="svg_57" opacity="0.8" points="85.09768307209015,11.917293974008558 101.11866769439126,58.00761798950684 149.90392720239666,59.001786414974035 111.02018072421275,88.48134163451469 125.15014462784293,135.18609552749365 85.09768307209015,107.31513861090087 45.045221516337364,135.18609552749365 59.17518541996755,88.48134163451469 20.29143894178364,59.001786414974035 69.07669844978903,58.00761798950684 85.09768307209013,11.917293974008558 101.11866769439126,58.007617989506834 " stroke="url(#svg_32)" stroke-width="2"/>
  <polygon fill="url(#svg_62)" id="svg_58" opacity="0.8" points="95.83987122774124,22.679373850818983 106.80489920571222,54.224357149797854 140.19434111761765,54.90478253294746 113.58165918369181,75.08107976941379 123.25244117266868,107.04658908198729 95.83987122774124,87.97124324226519 68.42730128281381,107.04658908198729 78.09808327179067,75.08107976941379 51.485401337864815,54.904782532947465 84.87484324977027,54.22435714979786 95.83987122774123,22.679373850818983 106.80489920571222,54.224357149797854 " stroke="url(#svg_32)" stroke-width="2"/>
  <polygon fill="url(#svg_62)" id="svg_59" opacity="0.8" points="84.1211205124855,36.84712124578817 90.83669678690671,56.166975408060594 111.2861971776253,56.58370471953828 94.98715117854142,68.94076056099145 100.91006119853854,88.51816760186543 84.1211205124855,76.8353939504915 67.33217982643247,88.51816760186543 73.25508984642958,68.94076056099145 56.95604384734571,56.58370471953829 77.4055442380643,56.166975408060594 84.1211205124855,36.84712124578817 90.83669678690671,56.166975408060594 " stroke="url(#svg_32)" stroke-width="2"/>
  <polygon fill="url(#svg_62)" id="svg_60" opacity="0.8" points="85.09768307209015,49.282382781285435 88.43034675454403,58.870030018969416 98.57859085029705,59.07683559827101 90.49004618337291,65.20913304260534 93.42934227822484,74.92459315736082 85.09768307209015,69.12691416939957 76.76602386595546,74.92459315736082 79.70531996080739,65.20913304260534 71.61677529388325,59.07683559827101 81.76501938963627,58.870030018969416 85.09768307209015,49.282382781285435 88.43034675454402,58.870030018969416 " stroke="url(#svg_32)" stroke-width="2"/>
  <polygon fill="url(#svg_62)" id="svg_61" opacity="0.8" points="155.7550483942032,84.51419767185325 104.4181877374649,155.65861483174012 21.353387475013733,128.48385837522437 21.353387475013733,40.54452518370363 104.4181877374649,13.369773637512253 155.7550483942032,84.51419767185325 " stroke="url(#svg_32)" stroke-width="2" transform="rotate(51.8719, 88.5542, 84.5142)"/>
  <polygon fill="url(#svg_62)" id="svg_67" opacity="0.8" points="310.9219045639038,317.1165313720703 326.9428701400757,363.20684814453125 375.7281484603882,364.2010192871094 336.8443899154663,393.6805725097656 350.9743642807007,440.3853302001953 310.9219045639038,412.5143585205078 270.86944484710693,440.3853302001953 284.9993886947632,393.6805725097656 246.11566066741943,364.2010192871094 294.9009084701538,363.20684814453125 310.9219045639038,317.1165313720703 326.9428701400757,363.20684814453125 " stroke="url(#svg_32)" stroke-width="2"/>
  <polygon fill="url(#svg_62)" id="svg_66" opacity="0.8" points="321.6640920639038,327.8786163330078 332.62911891937256,359.42359924316406 366.0185537338257,360.10401916503906 339.4058828353882,380.2803192138672 349.0766592025757,412.24583435058594 321.6640920639038,393.1704864501953 294.25152492523193,412.24583435058594 303.92230129241943,380.2803192138672 277.30963039398193,360.10401916503906 310.69906520843506,359.42359924316406 321.6640920639038,327.8786163330078 332.62911891937256,359.42359924316406 " stroke="url(#svg_32)" stroke-width="2"/>
  <polygon fill="url(#svg_62)" id="svg_65" opacity="0.8" points="309.9453420639038,342.0463562011719 316.6609182357788,361.3662109375 337.11041164398193,361.78294372558594 320.81136989593506,374.13999938964844 326.7342824935913,393.71739196777344 309.9453420639038,382.0346221923828 293.1564016342163,393.71739196777344 299.07931423187256,374.13999938964844 282.7802724838257,361.78294372558594 303.2297658920288,361.3662109375 309.9453420639038,342.0463562011719 316.6609182357788,361.3662109375 " stroke="url(#svg_32)" stroke-width="2"/>
  <polygon fill="url(#svg_62)" id="svg_64" opacity="0.8" points="310.9219045639038,354.4816131591797 314.25457668304443,364.0692596435547 324.40280055999756,364.2760772705078 316.31426906585693,370.4083709716797 319.2535696029663,380.1238250732422 310.9219045639038,374.32615661621094 302.5902395248413,380.1238250732422 305.5295400619507,370.4083709716797 297.44097805023193,364.2760772705078 307.5892324447632,364.0692596435547 310.9219045639038,354.4816131591797 314.25457668304443,364.0692596435547 " stroke="url(#svg_32)" stroke-width="2"/>
  <polygon fill="url(#svg_62)" id="svg_63" opacity="0.8" points="381.57928371429443,389.7134246826172 330.24240016937256,460.8578643798828 247.17761135101318,433.68309020996094 247.17761135101318,345.74375915527344 330.24240016937256,318.5690155029297 381.57928371429443,389.7134246826172 " stroke="url(#svg_32)" stroke-width="2" transform="rotate(51.8719, 314.378, 389.713)"/>
  <polygon fill="url(#svg_62)" id="svg_72" opacity="0.8" points="564.8281707763672,17.311813354492188 580.8491363525391,63.402130126953125 629.6344146728516,64.39630126953125 590.7506561279297,93.8758544921875 604.8806304931641,140.5806121826172 564.8281707763672,112.70964050292969 524.7757110595703,140.5806121826172 538.9056549072266,93.8758544921875 500.0219268798828,64.39630126953125 548.8071746826172,63.402130126953125 564.8281707763672,17.311813354492188 580.8491363525391,63.402130126953125 " stroke="url(#svg_32)" stroke-width="2"/>
  <polygon fill="url(#svg_62)" id="svg_71" opacity="0.8" points="575.5703582763672,28.073898315429688 586.5353851318359,59.61888122558594 619.9248199462891,60.29930114746094 593.3121490478516,80.47560119628906 602.9829254150391,112.44111633300781 575.5703582763672,93.36576843261719 548.1577911376953,112.44111633300781 557.8285675048828,80.47560119628906 531.2158966064453,60.29930114746094 564.6053314208984,59.61888122558594 575.5703582763672,28.073898315429688 586.5353851318359,59.61888122558594 " stroke="url(#svg_32)" stroke-width="2"/>
  <polygon fill="url(#svg_62)" id="svg_70" opacity="0.8" points="563.8516082763672,42.24163818359375 570.5671844482422,61.561492919921875 591.0166778564453,61.97822570800781 574.7176361083984,74.33528137207031 580.6405487060547,93.91267395019531 563.8516082763672,82.22990417480469 547.0626678466797,93.91267395019531 552.9855804443359,74.33528137207031 536.6865386962891,61.97822570800781 557.1360321044922,61.561492919921875 563.8516082763672,42.24163818359375 570.5671844482422,61.561492919921875 " stroke="url(#svg_32)" stroke-width="2"/>
  <polygon fill="url(#svg_62)" id="svg_69" opacity="0.8" points="564.8281707763672,54.67689514160156 568.1608428955078,64.26454162597656 578.3090667724609,64.47135925292969 570.2205352783203,70.60365295410156 573.1598358154297,80.31910705566406 564.8281707763672,74.52143859863281 556.4965057373047,80.31910705566406 559.4358062744141,70.60365295410156 551.3472442626953,64.47135925292969 561.4954986572266,64.26454162597656 564.8281707763672,54.67689514160156 568.1608428955078,64.26454162597656 " stroke="url(#svg_32)" stroke-width="2"/>
  <polygon fill="url(#svg_62)" id="svg_68" opacity="0.8" points="635.4855499267578,89.90870666503906 584.1486663818359,161.0531463623047 501.08387756347656,133.8783721923828 501.08387756347656,45.93904113769531 584.1486663818359,18.764297485351562 635.4855499267578,89.90870666503906 " stroke="url(#svg_32)" stroke-width="2" transform="rotate(51.8719, 568.285, 89.9087)"/>
  <text fill="url(#svg_74)" font-family="serif" font-size="24" id="svg_73" opacity="0.8" stroke="#8e1616" stroke-dasharray="null" stroke-linecap="null" stroke-linejoin="null" stroke-width="2" text-anchor="middle" x="134.90237" xml:space="preserve" y="335.918">Por el honor y la gloria !!!</text>
  <rect fill="url(#svg_77)" height="118" id="svg_76" opacity="0.75" stroke="#7a4b4b" stroke-dasharray="null" stroke-linecap="null" stroke-linejoin="null" stroke-width="4" width="27" x="99.42969" y="182.19141"/>
 </g>
</svg>